<svg xmlns="http://www.w3.org/2000/svg" width="132" height="40"><style>.style0{fill:#fff}</style><path d="M1.179 8.931v.567h.829v1.836h.697V9.498h.842v-.567H1.179zm4.383 0l-.353 1.311L4.877 8.9h-1.05v2.403h.657V9.632l.448 1.702h.543l.456-1.702v1.702h.66V8.931H5.562zm4.664.275a1 1 0 0 1 .952-.813h9.746c.453 0 .9.4 1 .794l3.781 14.4c.115.4.3.8.4.794.076 0 .193-.366.26-.813 0 0 .283-1.936.646-3.226L30.2 9.2c.127-.432.598-.789 1.047-.789h9.627c.451 0 .9.4 1 .809l4.742 28.83c.073.445-.237.811-.688.8h-9.059a.92.92 0 0 1-.896-.818l-1.347-15.043c-.041-.449-.12-.816-.176-.816-.055 0-.172.363-.258.8 0 0-.248 1.254-.57 2.225l-4.15 12.865c-.137.431-.619.783-1.071.783h-4.819c-.451 0-.929-.355-1.061-.785l-3.479-11.313a33.299 33.299 0 0 1-.432-1.582s-.414-1.706-.494-2.998c-.201 0-.389.368-.418.8 0 0-.105 1.643-.229 2.854l-1.211 12.189a.928.928 0 0 1-.9.814H6.252a.678.678 0 0 1-.689-.811l4.663-28.808zm71.843 14.491c0 9.774-7.549 15.63-16.838 15.63-9.287 0-16.84-5.855-16.84-15.63 0-9.569 7.594-15.788 16.84-15.788C74.478 7.9 82.1 14.1 82.1 23.7m-22.562.16c0 3.5 2.3 5.9 5.7 5.9 3.354 0 5.691-2.381 5.691-5.855 0-3.229-2.18-5.936-5.691-5.936C61.717 17.9 59.5 20.6 59.5 23.9M85.513 9.216c0-.451.37-.822.819-.822h8.98c.453 0 1 .3 1.2.709l9.103 15.5c.228.4.5.7.6.706.092 0 .113-.366.051-.813 0 0-.768-5.604-.768-8.187l-.043-7.058a.82.82 0 0 1 .815-.822h8.938c.451 0 .8.4.8.822v28.805a.823.823 0 0 1-.82.822h-8.938c-.45 0-1.013-.316-1.245-.702l-8.88-14.588c-.234-.387-.501-.702-.587-.702-.09 0-.127.368-.082.8 0 0 .6 5.9.6 7.912l.011 6.441c0 .453-.37.822-.821.822h-8.939a.823.823 0 0 1-.819-.822V9.216zm34.245-.822c5.781 3.1 10.4.4 10.4.417.391-.23.709-.046.7.405v28.805a.823.823 0 0 1-.821.822h-9.421a.822.822 0 0 1-.82-.822V8.394zm1.067-3.177c0-2.761 1.865-4.544 4.753-4.544 2.89 0 4.8 1.8 4.8 4.5C130.331 8 120.8 8 120.8 5.2" class="style0"/></svg>